# xmcd
#
# Track frame offsets: 
#        150
#        18624
#        37750
#        58524
#        78849
#        101346
#        116347
#        138624
#        155497
#        175375
#        198381
#        220858
#        239791
#        255288
#        270591
#        283352
#        296780
#        314157
#        331764
#
# Disc length: 4669 seconds
#
# Revision: 21
# Processed by: cddbd v1.5.2PL0 Copyright (c) Steve Scherf et al.
# Submitted via: ExactAudioCopy v0.95b3
#
DISCID=1b123b13
DTITLE=Nazareth - Snakes 'N' Ladders and Single Hits Vol. 1
DYEAR=2000
DGENRE=Classic Rock
TTITLE0=We Are Animals
TTITLE1=Lady Luck
TTITLE2=Hang On To A Dream
TTITLE3=Piece Of My Heart
TTITLE4=Trouble
TTITLE5=The Key
TTITLE6=Back To School
TTITLE7=Girls
TTITLE8=Donna - Get Off That Crack
TTITLE9=See You, See Me
TTITLE10=Helpless
TTITLE11=Winner On The Night
TTITLE12=My White Bicycle
TTITLE13=Holly Roller
TTITLE14=Greens
TTITLE15=Desolation Road
TTITLE16=Love Hurts
TTITLE17=Down
TTITLE18=Railroad Boy
EXTD=
EXTT0=
EXTT1=
EXTT2=
EXTT3=
EXTT4=
EXTT5=
EXTT6=
EXTT7=
EXTT8=
EXTT9=
EXTT10=
EXTT11=
EXTT12=
EXTT13=
EXTT14=
EXTT15=
EXTT16=
EXTT17=
EXTT18=
PLAYORDER=
